#!OML:ASF H:\charlestonDancing\Project 1\Capture day 1\Session 1\femaleDancer.ASF
:FULLY-SPECIFIED
:DEGREES
143
root 0.411039 17.7366 -1.97521 27.6339 -83.2408 -23.2471
lowerback 25.1749 2.22943 11.4818
upperback 5.30076 5.61978 2.68651
thorax -7.16264 2.3145 -5.20278
lowerneck 0.170576 -0.230286 2.30569
upperneck 1.43669 -0.268929 -6.94796
head 0.407668 -0.169738 -2.59367
rclavicle -4.45278e-014 -7.79236e-014
rhumerus -31.5061 -4.29087 -73.253
rradius 59.6568
rwrist 21.6405
rhand -42.0251 -48.1642
rfingers 7.12502
rthumb -14.9194 -77.6069
lclavicle -4.45278e-014 -7.79236e-014
lhumerus -54.6084 24.621 10.2134
lradius 136.755
lwrist 8.81827
lhand -14.7038 -7.17703
lfingers 7.12502
lthumb 11.4504 22.4903
rfemur -22.4046 -11.2254 29.1834
rtibia 33.8791
rfoot -17.6325 0.828472
rtoes -8.4512
lfemur -56.3403 -5.01714 -22.8813
ltibia 140.02
lfoot -9.85627 -9.56608
ltoes -31.6482
144
root 0.425371 17.7839 -1.96443 27.598 -82.7782 -22.6607
lowerback 24.9874 2.21593 11.7654
upperback 5.20957 5.67879 2.89147
thorax -7.15278 2.33664 -5.13958
lowerneck 0.399464 -0.18317 2.3254
upperneck 1.11768 -0.220162 -6.88839
head 0.27054 -0.135184 -2.57551
rclavicle -5.1684e-014 -1.74931e-014
rhumerus -30.5925 -3.63339 -72.4433
rradius 61.2998
rwrist 22.6146
rhand -42.4996 -47.2808
rfingers 7.12502
rthumb -15.3764 -76.689
lclavicle -5.1684e-014 -1.74931e-014
lhumerus -54.8688 24.8139 10.8647
lradius 136.925
lwrist 8.97071
lhand -14.9692 -7.28058
lfingers 7.12502
lthumb 11.1944 22.4008
rfemur -22.7068 -11.7859 29.4368
rtibia 33.0875
rfoot -17.1977 1.00884
rtoes -8.33415
lfemur -54.8955 -4.67602 -22.471
ltibia 139.864
lfoot -9.83808 -9.67218
ltoes -26.0442
145
root 0.449668 17.8495 -1.97152 25.5996 -82.0231 -19.908
lowerback 24.7207 2.06137 11.7499
upperback 5.02387 5.48398 3.00984
thorax -7.27364 2.23693 -4.93817
lowerneck 0.108072 -0.175589 2.62486
upperneck 1.49906 -0.190924 -6.95356
head 0.442169 -0.129993 -2.65491
rclavicle 3.89618e-014 -1.90833e-014
rhumerus -29.6217 -2.97617 -71.7942
rradius 62.5669
rwrist 23.508
rhand -42.1477 -47.3843
rfingers 7.12502
rthumb -15.0375 -76.8182
lclavicle 3.89618e-014 -1.90833e-014
lhumerus -55.3987 24.9802 11.4482
lradius 137.229
lwrist 8.93107
lhand -15.1875 -7.51363
lfingers 7.12502
lthumb 10.9839 22.179
rfemur -23.0105 -12.1999 29.5601
rtibia 31.9102
rfoot -16.6056 0.811503
rtoes -8.22151
lfemur -53.909 -5.16372 -22.1467
ltibia 138.53
lfoot -9.40635 -9.05634
ltoes -29.938
146
root 0.452513 17.9469 -1.97852 22.3825 -81.5768 -16.3574
lowerback 24.8688 1.97562 11.4736
upperback 4.96394 5.33548 2.97029
thorax -7.46639 2.1596 -4.8016
lowerneck 0.0385293 -0.185132 2.88688
upperneck 1.64379 -0.197074 -6.62948
head 0.499133 -0.130873 -2.59573
rclavicle 7.95139e-016 1.74931e-014
rhumerus -28.7738 -2.57069 -71.1531
rradius 63.4877
rwrist 24.4509
rhand -41.9099 -47.807
rfingers 7.12502
rthumb -14.8084 -77.2579
lclavicle 7.95139e-016 1.74931e-014
lhumerus -55.8144 25.028 12.1892
lradius 137.617
lwrist 8.77527
lhand -15.2769 -7.75376
lfingers 7.12502
lthumb 10.8977 21.9434
rfemur -22.382 -12.3031 29.2115
rtibia 30.1276
rfoot -15.8679 0.435327
rtoes -9.19765
lfemur -51.7263 -5.7038 -22.3371
ltibia 135.733
lfoot -8.83968 -7.73441
ltoes -27.9059
147
root 0.450629 18.0491 -1.98891 18.6744 -80.8936 -12.0794
lowerback 24.7136 1.8233 11.1115
upperback 4.90525 5.03867 2.88015
thorax -7.52632 2.02688 -4.6126
lowerneck -0.130606 -0.196491 3.1807
upperneck 1.7209 -0.21237 -6.27222
head 0.551537 -0.135922 -2.53166
rclavicle 5.64548e-014 -3.97569e-014
rhumerus -27.9618 -2.27655 -70.5107
rradius 64.1671
rwrist 25.0764
rhand -42.044 -47.5403
rfingers 7.12502
rthumb -14.9375 -76.9817
lclavicle 5.64548e-014 -3.97569e-014
lhumerus -56.2406 25.0593 13.0089
lradius 138.003
lwrist 8.48278
lhand -15.4633 -7.97869
lfingers 7.12502
lthumb 10.7179 21.7279
rfemur -21.8656 -12.2816 28.7693
rtibia 28.2457
rfoot -15.1786 -0.333344
rtoes -11.3564
lfemur -49.4788 -6.55858 -22.5789
ltibia 132.119
lfoot -9.96288 -6.0521
ltoes -30.4712
148
root 0.444038 18.1496 -1.99781 15.2779 -80.0164 -7.88458
lowerback 24.2612 1.63117 10.7878
upperback 4.81392 4.6677 2.74475
thorax -7.4695 1.8683 -4.45839
lowerneck -0.331128 -0.205785 3.47392
upperneck 1.68197 -0.232898 -5.8831
head 0.572547 -0.142198 -2.4567
rclavicle -3.10104e-014 -1.90833e-014
rhumerus -27.3253 -2.03217 -69.8463
rradius 64.6999
rwrist 25.2406
rhand -42.2838 -47.6436
rfingers 7.12502
rthumb -15.1686 -77.0676
lclavicle -3.10104e-014 -1.90833e-014
lhumerus -56.5587 24.9778 13.8855
lradius 138.281
lwrist 8.04767
lhand -15.8882 -8.29856
lfingers 7.12502
lthumb 10.308 21.4288
rfemur -21.5586 -12.2735 28.2867
rtibia 26.4615
rfoot -14.7103 -1.21933
rtoes -13.335
lfemur -47.0923 -7.45079 -22.8441
ltibia 127.718
lfoot -12.1586 -4.13515
ltoes -33.5384
149
root 0.432903 18.2397 -2.00096 11.829 -79.0502 -3.49981
lowerback 23.664 1.55658 10.5534
upperback 4.64593 4.46232 2.52842
thorax -7.38147 1.78919 -4.48459
lowerneck -0.403747 -0.383801 3.73335
upperneck 1.51497 -0.48303 -5.421
head 0.519761 -0.260488 -2.35145
rclavicle 3.65764e-014 1.90833e-014
rhumerus -27.2217 -2.13742 -68.9607
rradius 65.2231
rwrist 25.2137
rhand -42.4638 -48.531
rfingers 7.12502
rthumb -15.342 -77.9418
lclavicle 3.65764e-014 1.90833e-014
lhumerus -56.297 24.6495 15.1585
lradius 138.464
lwrist 7.56997
lhand -16.2134 -8.62665
lfingers 7.12502
lthumb 9.99432 21.1161
rfemur -21.5976 -12.3586 27.6293
rtibia 25.0651
rfoot -14.4017 -1.96306
rtoes -14.9943
lfemur -44.6474 -8.40664 -23.1642
ltibia 122.277
lfoot -13.0596 -2.91669
ltoes -31.654
150
root 0.419697 18.3155 -2.00451 8.13592 -78.0488 1.18391
lowerback 23.0526 1.53803 10.1537
upperback 4.47418 4.29034 2.28543
thorax -7.29453 1.72916 -4.4571
lowerneck -0.504776 -0.620754 3.87964
upperneck 1.27575 -0.813865 -4.98819
head 0.446324 -0.421244 -2.23564
rclavicle -1.27222e-014 -2.22639e-014
rhumerus -27.3754 -2.31771 -67.9365
rradius 65.8572
rwrist 25.0653
rhand -42.7619 -49.0421
rfingers 7.12502
rthumb -15.6291 -78.4307
lclavicle -1.27222e-014 -2.22639e-014
lhumerus -55.8777 24.3634 16.4189
lradius 138.617
lwrist 7.21824
lhand -16.2047 -8.94986
lfingers 7.12502
lthumb 10.0026 20.7925
rfemur -22.0151 -12.3255 26.7126
rtibia 24.2239
rfoot -14.0443 -2.61676
rtoes -15.8141
lfemur -41.9519 -9.10014 -23.5728
ltibia 116.378
lfoot -13.8791 -2.19409
ltoes -29.5778
151
root 0.406416 18.375 -2.0099 5.35933 -77.0218 5.02505
lowerback 22.3886 1.48126 9.75118
upperback 4.28082 4.07061 2.07435
thorax -7.21004 1.64496 -4.37872
lowerneck -0.659608 -0.789419 3.95061
upperneck 0.985562 -1.05451 -4.67049
head 0.371526 -0.53966 -2.14415
rclavicle -1.43125e-014 -5.88403e-014
rhumerus -27.5176 -2.40042 -66.8735
rradius 66.585
rwrist 24.427
rhand -42.8476 -48.5235
rfingers 7.12502
rthumb -15.7116 -77.9057
lclavicle -1.43125e-014 -5.88403e-014
lhumerus -55.5682 24.1244 17.3223
lradius 138.699
lwrist 7.02011
lhand -16.234 -9.29371
lfingers 7.12502
lthumb 9.97443 20.45
rfemur -22.916 -12.1713 25.8233
rtibia 24.1159
rfoot -13.6464 -3.13559
rtoes -15.4119
lfemur -39.6521 -9.55516 -23.7205
ltibia 109.631
lfoot -13.9706 -1.63236
ltoes -28.29
152
root 0.395291 18.4047 -2.01415 3.25568 -76.0476 8.26441
lowerback 21.655 1.43556 9.37469
upperback 4.04901 3.87333 1.88504
thorax -7.12369 1.56975 -4.29543
lowerneck -0.872949 -0.92935 3.87538
upperneck 0.742732 -1.25532 -4.39818
head 0.324636 -0.640497 -2.04206
rclavicle 3.4191e-014 -3.49861e-014
rhumerus -27.6008 -2.38459 -65.7303
rradius 67.2469
rwrist 23.6349
rhand -42.6804 -48.0565
rfingers 7.12502
rthumb -15.5506 -77.4513
lclavicle 3.4191e-014 -3.49861e-014
lhumerus -55.3284 23.8484 17.9478
lradius 138.713
lwrist 7.03235
lhand -16.4004 -9.59539
lfingers 7.12502
lthumb 9.81387 20.1559
rfemur -24.3411 -11.9818 24.9833
rtibia 24.8854
rfoot -13.4054 -3.50894
rtoes -14.8831
lfemur -37.4231 -9.60852 -23.778
ltibia 102.522
lfoot -14.139 -0.935712
ltoes -26.8902
153
root 0.384012 18.4018 -2.02044 0.92301 -75.2319 11.6769
lowerback 20.9383 1.44961 8.72674
upperback 3.85527 3.69831 1.72997
thorax -7.01782 1.51147 -4.02899
lowerneck -0.992094 -1.03971 3.67422
upperneck 0.386163 -1.41452 -4.24775
head 0.228981 -0.72082 -1.95604
rclavicle -5.08889e-014 -5.24792e-014
rhumerus -27.5128 -2.26223 -64.5362
rradius 67.7959
rwrist 23.2009
rhand -42.4779 -47.8322
rfingers 7.12502
rthumb -15.3555 -77.242
lclavicle -5.08889e-014 -5.24792e-014
lhumerus -55.2786 23.6998 18.2025
lradius 138.703
lwrist 7.42442
lhand -16.5343 -9.7317
lfingers 7.12502
lthumb 9.68466 20.0257
rfemur -26.1109 -11.5524 23.9801
rtibia 26.4464
rfoot -13.4317 -3.99833
rtoes -13.8871
lfemur -34.8811 -9.31272 -23.9312
ltibia 94.9846
lfoot -15.5362 0.356833
ltoes -29.3464
154
root 0.374543 18.3571 -2.0241 -0.962466 -74.6235 14.3928
lowerback 20.4243 1.51876 8.11245
upperback 3.69223 3.62796 1.64483
thorax -6.96981 1.49762 -3.74034
lowerneck -0.966483 -1.13496 3.51385
upperneck -0.0462281 -1.55197 -4.29152
head 0.0852813 -0.789419 -1.93923
rclavicle -5.40694e-014 3.65764e-014
rhumerus -27.352 -2.15098 -63.2631
rradius 68.2571
rwrist 22.9742
rhand -42.4375 -47.2684
rfingers 7.12502
rthumb -15.3166 -76.6812
lclavicle -5.40694e-014 3.65764e-014
lhumerus -55.2914 23.6111 18.0628
lradius 138.627
lwrist 8.17237
lhand -16.6999 -9.70752
lfingers 7.12502
lthumb 9.52494 20.0572
rfemur -27.9852 -10.8584 23.0386
rtibia 28.6349
rfoot -13.85 -4.69796
rtoes -12.8232
lfemur -31.985 -8.71537 -23.9676
ltibia 87.1389
lfoot -16.7792 1.27022
ltoes -26.1455
155
root 0.366903 18.282 -2.01429 -2.14533 -74.2235 16.4102
lowerback 19.8051 1.59284 7.70594
upperback 3.47261 3.61017 1.5925
thorax -6.90658 1.50456 -3.54194
lowerneck -1.02214 -1.16864 3.37774
upperneck -0.25519 -1.60524 -4.52403
head 0.0268038 -0.817549 -1.99
rclavicle -5.80451e-014 -1.43125e-014
rhumerus -27.0363 -1.86131 -61.9309
rradius 68.5607
rwrist 22.599
rhand -42.2306 -46.5796
rfingers 7.12502
rthumb -15.1173 -76.0075
lclavicle -5.80451e-014 -1.43125e-014
lhumerus -55.481 23.5081 17.5118
lradius 138.497
lwrist 9.00274
lhand -16.9298 -9.74728
lfingers 7.12502
lthumb 9.3031 20.0274
rfemur -30.0732 -10.127 22.2786
rtibia 31.1974
rfoot -14.7126 -5.43671
rtoes -12.9335
lfemur -29.1267 -8.00352 -23.8929
ltibia 79.0064
lfoot -19.0727 2.04896
ltoes -25.9558
156
root 0.350679 18.1908 -1.99841 -3.35563 -73.0376 17.7613
lowerback 19.6622 1.23754 7.58257
upperback 3.35295 3.12847 1.6276
thorax -7.02455 1.27226 -3.31691
lowerneck -1.03993 -1.11765 3.21983
upperneck -0.34668 -1.54226 -4.9
head 0.00229372 -0.787726 -2.08401
rclavicle 6.04305e-014 1.59028e-015
rhumerus -26.4768 -1.3189 -60.6234
rradius 68.6719
rwrist 22.1064
rhand -41.8496 -45.7861
rfingers 7.12502
rthumb -14.7502 -75.2412
lclavicle 6.04305e-014 1.59028e-015
lhumerus -55.9559 23.4097 16.625
lradius 138.404
lwrist 9.73125
lhand -17.1603 -9.81831
lfingers 7.12502
lthumb 9.08062 19.9662
rfemur -31.2416 -9.95414 21.4201
rtibia 33.7758
rfoot -15.852 -6.60437
rtoes -12.5638
lfemur -25.4758 -8.09903 -23.7708
ltibia 70.6152
lfoot -20.2777 2.68713
ltoes -22.8063
157
root 0.346604 18.0737 -1.98233 -3.76923 -72.5448 18.4251
lowerback 19.3829 1.11821 7.39668
upperback 3.18321 2.9383 1.73516
thorax -7.09751 1.1837 -3.04372
lowerneck -0.859029 -1.07191 3.0559
upperneck -0.50926 -1.48555 -5.24415
head -0.0781464 -0.757544 -2.16517
rclavicle -6.36111e-014 0
rhumerus -25.7278 -0.736506 -59.3843
rradius 68.5167
rwrist 21.8218
rhand -41.8156 -44.7136
rfingers 7.12502
rthumb -14.7175 -74.1711
lclavicle -6.36111e-014 0
lhumerus -56.4788 23.3857 15.5749
lradius 138.399
lwrist 10.3477
lhand -17.1812 -9.75686
lfingers 7.12502
lthumb 9.06052 20.0285
rfemur -32.6618 -9.46007 20.9396
rtibia 36.0944
rfoot -16.7434 -7.55265
rtoes -11.012
lfemur -22.0495 -7.7432 -23.387
ltibia 62.2165
lfoot -22.3567 2.92565
ltoes -20.6708
